<svg width="139" height="142" viewBox="0 0 139 142" fill="none" xmlns="http://www.w3.org/2000/svg">
<path d="M102.846 139.766L109.696 128.159L88.6633 117.972C86.6211 116.982 85.2984 114.94 85.2315 112.671L84.1412 75.7292" stroke="#FBFBFB" stroke-width="3.42495" stroke-linecap="round"/>
<path d="M41.4717 139.839H56.8653L61.5597 76.8125" stroke="#FBFBFB" stroke-width="3.42495" stroke-linecap="round"/>
<path d="M45.5723 60.3173C45.1575 66.5963 42.1155 85.2432 26.6292 85.2432C13.6318 85.2432 8.51576 62.981 7.05804 58.2812L1.9993 58.2813" stroke="#FBFBFB" stroke-width="3.42495" stroke-linecap="round"/>
<path d="M28.2622 17.4517C28.2622 7.82968 36.0513 0 45.6234 0H98.2232C102.517 0 106.453 1.58009 109.485 4.18841V4.17897L109.527 4.22142C110.207 4.81101 110.841 5.44776 111.422 6.13168C115.021 9.7588 122.374 17.1781 122.374 17.1781H122.36C126.24 20.3807 128.723 25.2295 128.723 30.6584V83.0135C128.723 92.6355 120.934 100.465 111.361 100.465H58.7617C54.1257 100.465 49.9168 98.6304 46.8012 95.6447L46.7918 95.6353C46.5947 95.4466 46.407 95.2579 46.2194 95.0599L33.6442 82.4239C33.4518 82.2352 33.2594 82.0465 33.0717 81.8484L33.0295 81.806C30.0734 78.6741 28.2575 74.4527 28.2575 69.8068V17.4517H28.2622Z" fill="url(#paint0_linear_16041_14078)"/>
<path d="M108.554 60.5078C114.833 61.0786 136.329 63.1717 136.329 74.2481C135.261 83.8525 116.454 89.4229 111.846 89.7231V94.9476" stroke="#FBFBFB" stroke-width="3.42495" stroke-linecap="round"/>
<path d="M47.1523 45.4344C47.7193 46.7376 48.7836 47.8651 50.1949 48.6577C51.6063 49.4503 53.2934 49.8678 55.0179 49.8513C56.7424 49.8348 58.417 49.3851 59.8053 48.5658C61.1937 47.7464 62.2254 46.5989 62.7549 45.2852" stroke="#17202E" stroke-width="3.42495" stroke-linecap="round"/>
<path d="M64.0983 33.5947C64.3997 32.8356 64.9863 32.17 65.7752 31.6919C66.5641 31.2137 67.5153 30.9473 68.4946 30.9302C69.4739 30.9131 70.4317 31.1462 71.2327 31.5966C72.0336 32.0469 72.6374 32.6918 72.9585 33.44" stroke="#17202E" stroke-width="3.42495" stroke-linecap="round"/>
<path d="M36.6988 33.5947C37.0003 32.8356 37.5869 32.17 38.3758 31.6919C39.1646 31.2137 40.1159 30.9473 41.0952 30.9302C42.0745 30.9131 43.0322 31.1462 43.8332 31.5966C44.6342 32.0469 45.2379 32.6918 45.5591 33.44" stroke="#17202E" stroke-width="3.42495" stroke-linecap="round"/>
<defs>
<linearGradient id="paint0_linear_16041_14078" x1="28.2575" y1="2.99969e-06" x2="128.696" y2="100.199" gradientUnits="userSpaceOnUse">
<stop offset="0.2" stop-color="#41E39E"/>
<stop offset="0.898398" stop-color="#E399FF"/>
</linearGradient>
</defs>
</svg>
