<svg width="173" height="565" viewBox="0 0 173 565" fill="none" xmlns="http://www.w3.org/2000/svg">
<path d="M-462.647 347.037C-497.803 311.881 -497.813 254.676 -462.668 219.532L-269.548 26.4109C-253.784 10.6477 -233.557 1.96686 -212.898 0.367843L-212.933 0.333377L-212.623 0.333435C-207.97 -0.0104013 -203.318 -0.0096447 -198.683 0.352964C-172.217 0.391794 -118.114 0.504111 -118.114 0.504111L-118.165 0.555796C-92.2168 -1.99002 -65.3876 6.61239 -45.5521 26.4479L145.737 217.737C180.893 252.893 180.902 310.098 145.758 345.242L-47.3624 538.363C-64.3833 555.384 -86.5402 564.133 -108.888 564.664L-108.957 564.664C-110.37 564.698 -111.748 564.698 -113.161 564.663L-205.499 564.665C-206.894 564.682 -208.29 564.699 -209.703 564.664L-210.013 564.664C-232.309 564.075 -254.4 555.318 -271.375 538.343L-462.664 347.054L-462.647 347.037Z" fill="url(#paint0_linear_16041_14103)"/>
<defs>
<linearGradient id="paint0_linear_16041_14103" x1="-526.428" y1="283.291" x2="208.427" y2="284.2" gradientUnits="userSpaceOnUse">
<stop offset="0.2" stop-color="#E399FF"/>
<stop offset="0.898398" stop-color="#6ECEFF"/>
</linearGradient>
</defs>
</svg>
