<svg width="690" height="115" viewBox="0 0 690 115" fill="none" xmlns="http://www.w3.org/2000/svg">
<path d="M-70.6245 54.4442C-68.7534 55.2868 -66.9978 56.6913 -65.2653 57.8149C-61.269 60.3897 -57.2727 62.9177 -53.2302 65.4223C-40.6176 73.1936 -27.6817 80.4968 -14.4224 87.0743C0.77739 94.5881 16.5084 101.283 32.8862 105.66C47.2775 109.522 63.1471 111.957 77.7694 107.977C87.7716 105.262 103.11 96.5778 99.8068 83.8909C98.3284 78.2262 94.3089 73.5681 90.3357 69.4952C85.6464 64.6733 80.4722 60.3663 75.575 55.7784C67.3514 48.0539 58.019 38.0121 62.8007 25.8167C65.411 19.1924 70.8625 12.849 77.1919 9.66553C83.5212 6.4821 90.3127 7.09069 96.7345 9.22078C104.565 11.8424 111.726 16.3835 118.61 20.9012C126.649 26.1679 134.457 31.7622 142.68 36.7246C156.748 45.2216 174.789 53.6015 191.282 47.1878C193.338 46.392 195.256 45.3152 196.803 43.7001C197.127 43.349 197.45 42.834 197.658 42.3659C197.889 41.8743 198.212 40.9848 198.443 40.1656C199.506 36.1161 199.414 31.8325 199.76 27.6893C200.638 17.0389 205.558 7.74612 215.815 3.72003C229.836 -1.75734 245.775 0.2323 260.467 0.934525C273.518 1.56653 286.57 2.17513 299.644 2.80714C337.228 4.60952 374.834 6.43527 412.418 8.26106C456.724 10.4146 501.052 12.5446 545.358 14.6981C585.552 16.641 625.723 18.6072 665.916 20.55C673.817 20.9245 681.694 21.3225 689.594 21.697C690.957 21.7672 688.578 26.8233 687.053 26.753C649.354 24.9273 611.655 23.078 573.956 21.2523C529.65 19.0988 485.344 16.9453 441.039 14.8152C400.799 12.8724 360.536 10.9061 320.296 8.98672C305.026 8.26109 289.734 7.51205 274.465 6.78641C262.476 6.20123 250.395 5.26492 238.383 5.2415C229.721 5.2415 220.157 5.56921 212.142 9.33782C210.086 10.3209 207.868 11.702 206.459 13.3171C205.396 14.5109 204.888 15.5876 204.311 17.5773C201.816 26.1445 204.08 35.4138 199.391 43.4192C192.414 55.3571 176.198 55.8252 164.325 52.829C145.984 48.2178 130.553 35.6713 114.96 25.489C103.757 18.1625 87.0556 6.97366 73.6808 15.4472C68.6681 18.6306 64.3946 24.0378 64.9721 30.2876C65.4803 35.9288 69.1532 40.8678 72.803 44.9173C81.4885 54.5612 93.1309 61.7707 100.246 72.8425C103.156 77.3836 104.635 82.6034 103.295 87.9638C101.585 94.7988 96.5959 100.697 91.2598 105.004C80.3566 113.829 66.0577 115.795 52.5212 114.742C36.2357 113.455 20.3199 108.352 5.21259 102.266C-20.7748 91.8026 -45.2145 77.6645 -68.7995 62.4964C-70.3934 61.4664 -72.0104 60.179 -73.7429 59.4066C-74.8517 58.915 -72.1029 53.8122 -70.6476 54.4676L-70.6245 54.4442Z" fill="#FBFBFB"/>
</svg>
