<svg width="233" height="185" viewBox="0 0 233 185" fill="none" xmlns="http://www.w3.org/2000/svg">
<path d="M3.66364 182.13C4.76871 176.392 8.14535 171.127 12.6679 167.479C20.4648 161.169 30.6355 159.939 40.3355 161.046C42.0545 161.251 43.7326 156.989 41.9522 156.272C33.3573 152.768 24.0051 147.707 19.8508 138.917C18.6434 136.355 17.9681 133.63 17.8249 130.823C17.7635 129.635 17.8044 128.467 17.8863 127.299C17.9272 126.787 17.9886 126.275 18.0296 125.762C18.0909 125.189 18.1728 124.82 18.0705 125.291C18.5616 122.832 19.2574 121.316 20.608 118.57C21.2833 117.177 22.3884 115.251 23.473 113.571C24.6804 111.665 26.0106 109.821 27.4226 108.059C49.0533 81.0538 85.4796 73.5341 118.406 75.1732C128.188 75.665 138.093 76.7919 147.425 79.8244C153.011 81.648 158.741 84.1887 162.916 88.4301C165.474 91.0323 167.5 94.6384 167.582 98.0602C167.643 101.216 166.62 103.531 164.737 105.703C158.782 112.505 149.676 112.055 141.695 108.428C134.266 105.047 127.615 99.6584 122.663 93.1836C118.222 87.3851 114.662 79.7015 116.319 72.2432C118.284 63.3917 127.288 57.3677 135.31 54.4991C144.191 51.3232 153.953 51.1798 163.223 52.1633C182.705 54.2122 201.819 61.1992 219.356 69.7639C222.713 71.4031 226.007 73.1243 229.261 74.9683L231.287 70.2557C212.931 62.8179 199.015 44.787 192.303 26.674C189.315 18.6421 187.637 10.2414 186.962 1.69715C186.859 0.529228 185.857 0.324272 184.997 0.857002C183.974 1.49218 183.483 3.04938 183.565 4.17632C185.611 29.4606 197.337 53.782 218.231 68.6985C221.669 71.1572 225.352 73.3701 229.282 74.9478C231.205 75.7264 233.108 71.2597 231.308 70.2352C213.831 60.3182 194.431 52.6345 174.683 48.8234C154.935 45.0123 131.933 45.0124 118.509 61.5885C113.024 68.3706 111.224 76.9149 113.659 85.2952C116.094 93.6755 122.172 101.031 128.946 106.42C137.868 113.509 150.617 119.738 161.422 113.12C168.38 108.838 172.739 100.109 170.406 92.0362C166.845 79.6604 151.149 74.9068 140.099 72.7144C118.018 68.3296 93.8494 68.9034 72.1778 75.1732C56.8501 79.599 42.4638 87.467 31.2289 98.9003C24.7622 105.477 18.9095 113.468 15.8399 122.259C12.054 133.159 15.8808 144.982 24.6599 152.256C29.2235 156.046 34.5442 158.771 40.0081 160.984L41.6248 156.21C30.9629 155.001 19.7895 156.763 11.4401 163.976C6.03752 168.647 1.88325 175.183 0.532617 182.252C-0.101774 185.592 3.25437 184.752 3.74551 182.15L3.66364 182.13Z" fill="#FBFBFB"/>
</svg>
