<svg width="173" height="562" viewBox="0 0 173 562" fill="none" xmlns="http://www.w3.org/2000/svg">
<path d="M98.0509 561.974C44.4868 561.974 0.900368 518.402 0.90037 464.855L0.900383 170.613C0.900384 146.596 9.69644 124.574 24.2165 107.618L24.164 107.618L24.4003 107.381C27.6824 103.576 31.2271 100.032 35.0343 96.7772C55.2259 76.6448 96.528 35.5139 96.528 35.5139L96.528 35.5926C114.356 13.8853 141.348 6.13918e-06 171.57 7.46021e-06L463.022 2.02e-05C516.586 2.25413e-05 560.172 43.5721 560.172 97.1185L560.172 391.36C560.172 417.294 549.958 440.838 533.338 458.267L533.285 458.32C532.235 459.422 531.185 460.472 530.082 461.522L459.74 531.867C458.689 532.943 457.639 534.019 456.536 535.069L456.3 535.305C438.865 551.842 415.365 562 389.502 562L98.0509 562L98.0509 561.974Z" fill="url(#paint0_linear_16041_14104)"/>
<defs>
<linearGradient id="paint0_linear_16041_14104" x1="0.900383" y1="562" x2="561.411" y2="2.87441" gradientUnits="userSpaceOnUse">
<stop offset="0.2" stop-color="#E399FF"/>
<stop offset="0.898398" stop-color="#6ECEFF"/>
</linearGradient>
</defs>
</svg>
