<svg width="160" height="160" viewBox="0 0 160 160" fill="none" xmlns="http://www.w3.org/2000/svg">
<path d="M0.00749207 27.7934C0.00749207 12.4695 12.4123 0 27.6569 0H111.427C118.264 0 124.534 2.51643 129.362 6.67042V6.6554L129.429 6.723C130.512 7.66197 131.521 8.67606 132.448 9.76526C138.179 15.5418 149.889 27.3577 149.889 27.3577H149.867C156.047 32.4582 160 40.1803 160 48.8263V132.207C160 147.531 147.595 160 132.351 160H48.5807C41.1976 160 34.4945 157.078 29.5325 152.323L29.5176 152.308C29.2037 152.008 28.9048 151.707 28.6059 151.392L8.5788 131.268C8.27243 130.967 7.96602 130.667 7.6671 130.351L7.59987 130.284C2.89201 125.296 0 118.573 0 111.174V27.7934H0.00749207Z" fill="url(#paint0_linear_16041_16096)"/>
<path d="M54.9722 68.0158C54.9548 63.1757 52.6402 59.3882 49.6897 59.3945C46.087 59.4071 44.4546 64.3116 44.4649 68.0498C44.4784 71.8469 46.2318 76.6887 49.7466 76.6742C52.6917 76.6628 54.9847 72.8612 54.9722 68.0158Z" fill="#17202E"/>
<path d="M116.361 68.0159C116.35 64.2673 114.672 59.3658 111.078 59.3947C107.484 59.4235 105.846 64.3602 105.857 68.0477C105.869 71.851 107.644 76.689 111.136 76.6712C114.071 76.6602 116.374 72.8582 116.361 68.0159Z" fill="#17202E"/>
<path d="M63.5176 90.4992C64.761 93.3576 67.0954 95.8307 70.1911 97.569C73.2867 99.3074 76.9871 100.223 80.7695 100.187C84.5519 100.151 88.225 99.1645 91.2701 97.3674C94.3151 95.5703 96.5782 93.0533 97.7395 90.1719" stroke="#17202E" stroke-width="6.03538" stroke-linecap="round"/>
<defs>
<linearGradient id="paint0_linear_16041_16096" x1="-4.76586e-06" y1="4.77728e-06" x2="159.958" y2="159.576" gradientUnits="userSpaceOnUse">
<stop offset="0.2" stop-color="#B790FF"/>
<stop offset="0.898398" stop-color="#FF848C"/>
</linearGradient>
</defs>
</svg>
