<svg width="506" height="363" viewBox="0 0 506 363" fill="none" xmlns="http://www.w3.org/2000/svg">
<path d="M-451.914 352.832C-445.078 334.272 -436.83 316.14 -427.21 298.85C-417.743 281.853 -406.676 264.159 -391.445 251.716C-385.961 247.249 -379.477 243.125 -372.307 242.263C-365.734 241.477 -359.398 243.848 -354.304 247.944C-345.165 255.265 -344.77 266.462 -347.639 277.005C-351.091 289.756 -357.649 301.475 -363.103 313.433C-367.704 323.533 -373.23 335.52 -371.407 346.928C-369.291 360.228 -355.991 366.348 -344.122 368.925C-324.781 373.115 -305.816 367.128 -290.485 355.084C-273.905 342.047 -261.688 323.986 -251.793 305.578C-241.899 287.169 -234.557 268.821 -228.754 249.428C-221.791 226.164 -211.884 203.538 -195.626 185.163C-181.801 169.545 -162.003 157.202 -140.528 163.326C-131.085 166.017 -121.722 171.737 -118.923 181.74C-116.526 190.356 -118.959 199.609 -122.368 207.607C-126.147 216.49 -131.535 224.67 -137.567 232.149C-142.083 237.751 -147.467 242.513 -152.016 248.085C-162.757 261.204 -171.608 277.047 -176.193 293.427C-180.435 308.598 -180.287 326.455 -165.671 335.892C-157.351 341.264 -146.467 343.176 -136.7 342.361C-126.443 341.512 -116.761 337.42 -108.412 331.506C-90.0422 318.49 -77.4873 297.777 -69.4839 277.104C-65.8415 267.732 -63.5511 258.181 -61.5872 248.344C-60.5568 243.186 -58.996 238.146 -57.2835 233.169C-52.3104 218.809 -45.889 204.967 -38.8955 191.498C-30.1935 174.731 -20.385 158.516 -9.5294 143.067C1.32622 127.618 13.6889 112.368 27.5626 99.1197C39.8819 87.346 53.8269 76.6249 69.6937 70.0831C83.2528 64.5077 98.3981 62.5995 112.58 66.9331C122.18 69.8533 129.156 76.4469 129.922 86.758C130.772 98.1452 126.05 109.741 121.612 119.983C115.852 133.24 108.924 145.949 102.408 158.845C96.3785 170.829 90.2573 183.102 86.8867 196.156C84.4372 205.626 83.2556 216.861 89.3213 225.273C97.8934 237.144 114.163 241.46 128.086 240.199C145.546 238.621 161.927 229.857 175.425 219.068C190.458 207.062 203.086 191.642 211.332 174.223C215.349 165.766 218.149 156.844 219.556 147.592C220.861 139.01 221.65 130.346 222.266 121.67C223.437 105.346 223.948 88.791 227.842 72.8198C231.736 56.8485 239.458 42.5993 251.835 31.7866C259.587 25.0277 268.514 19.7572 277.86 15.5095C288.411 10.726 299.667 6.63891 311.139 4.7684C325.64 2.41183 339.996 4.76686 350.772 15.3155C359.986 24.3034 365.388 36.4667 370.978 47.8615C376.198 58.5066 381.758 70.186 391.463 77.506C396.54 81.3568 402.315 83.4337 408.581 84.3037C421.449 86.0948 434.574 85.9572 447.474 84.6546C466.649 82.7095 486.19 78.5393 504.078 71.2534C504.993 70.8785 505.5 69.9163 504.777 69.1229C503.989 68.2723 502.356 68.4803 501.422 68.8626C482.565 76.5454 461.72 80.7049 441.479 82.1439C434.799 82.617 428.084 82.7483 421.386 82.4113C416.162 82.1413 410.686 81.8698 405.594 80.54C400.126 79.1124 395.38 76.0691 391.443 72.0864C382.745 63.2851 377.863 51.2651 372.446 40.3443C367.029 29.4235 360.514 17.1506 350.14 9.47601C337.36 0.0207485 321.222 -0.493696 306.159 2.63819C294.63 5.03494 283.271 9.2273 272.671 14.3029C263.614 18.6418 254.911 23.9465 247.414 30.6637C235.182 41.6264 227.244 55.8594 223.27 71.7377C219.307 87.5906 218.698 104.06 217.551 120.29C216.925 129.096 216.203 137.922 214.896 146.651C213.514 155.914 210.811 164.817 206.827 173.302C198.614 190.854 185.732 206.421 170.456 218.295C157.178 228.596 140.692 237.362 123.486 237.411C111.289 237.461 96.1766 231.623 91.3475 219.476C87.4235 209.642 90.723 198 94.0618 188.501C98.7482 175.181 105.374 162.555 111.81 150.027C118.246 137.499 124.87 125.02 129.773 111.82C133.37 102.132 136.789 90.63 133.575 80.3788C130.209 69.7075 119.498 64.7906 109.272 62.7975C93.9708 59.8237 78.5151 62.5087 64.386 68.8415C48.513 75.9306 34.617 86.9251 22.217 98.9624C8.43804 112.34 -3.69212 127.389 -14.6822 143.124C-25.4301 158.529 -35.1204 174.674 -43.7726 191.358C-50.7376 204.795 -57.1517 218.655 -62.0963 232.982C-63.7982 237.933 -65.3663 242.956 -66.3608 248.099C-68.3304 258.127 -70.7276 267.827 -74.4874 277.372C-82.6343 298.104 -95.5138 319.202 -114.653 331.464C-123.315 337.024 -133.451 340.213 -143.783 339.394C-152.766 338.695 -162.588 335.488 -168.353 328.168C-178.908 314.783 -172.84 294.757 -166.812 280.824C-160.784 266.892 -151.784 252.999 -140.692 241.708C-134.45 235.357 -128.931 228.213 -124.284 220.63C-119.341 212.591 -115.007 203.732 -113.637 194.286C-112.425 185.888 -113.985 177.474 -119.801 171.055C-126.684 163.459 -137.836 159.666 -147.826 158.813C-169.413 156.968 -188.21 170.117 -201.559 185.875C-217.34 204.494 -226.805 226.918 -233.801 250.049C-239.704 269.505 -247.444 288.519 -257.174 306.357C-267.22 324.807 -279.885 343.155 -297.147 355.55C-304.74 361.007 -313.392 365.159 -322.656 366.691C-331.92 368.223 -341.725 367 -350.515 363.602C-355.866 361.539 -361.142 358.378 -364.148 353.343C-366.719 349.011 -367.233 343.919 -366.698 338.985C-365.348 326.675 -358.967 314.987 -353.75 303.985C-348.533 292.983 -342.409 281.023 -341.278 268.489C-340.802 263.306 -341.506 257.957 -344.065 253.347C-346.985 248.11 -352.06 244.112 -357.468 241.654C-371.945 235.115 -386.833 242.409 -397.779 252.215C-412.632 265.53 -423.567 283.086 -433.071 300.455C-442.22 317.154 -450.102 334.591 -456.678 352.457C-457.442 354.531 -452.629 354.718 -451.96 352.872L-451.914 352.832Z" fill="#17202E"/>
</svg>
