<svg width="130" height="101" viewBox="0 0 130 101" fill="none" xmlns="http://www.w3.org/2000/svg">
<path d="M91.3906 99.3165H80.4623L77.1297 54.5723" stroke="#17202E" stroke-width="2.43145" stroke-linecap="round"/>
<path d="M45.8086 99.3165H56.7369L60.0696 54.5723" stroke="#17202E" stroke-width="2.43145" stroke-linecap="round"/>
<path d="M100.497 12.3894C100.497 5.55847 94.9673 0 88.1718 0H50.83C47.7821 0 44.9872 1.12174 42.8353 2.97345V2.96675L42.8054 2.99689C42.3223 3.41545 41.8726 3.86749 41.4596 4.35302C38.9046 6.928 33.6847 12.1952 33.6847 12.1952H33.6947C30.9399 14.4688 29.1777 17.911 29.1777 21.7651V58.9332C29.1777 65.7641 34.7074 71.3226 41.5029 71.3226H78.8447C82.1358 71.3226 85.1238 70.02 87.3357 67.9004L87.3424 67.8937C87.4823 67.7598 87.6155 67.6258 87.7488 67.4852L96.6762 58.5146C96.8127 58.3807 96.9493 58.2468 97.0826 58.1061L97.1125 58.076C99.2112 55.8526 100.5 52.8557 100.5 49.5575V12.3894H100.497Z" fill="url(#paint0_linear_16041_18999)"/>
<path d="M89.6171 24.1216C89.6228 22.5615 90.3688 21.3407 91.3198 21.3428C92.4811 21.3468 93.0072 22.9277 93.0039 24.1326C92.9995 25.3564 92.4344 26.9171 91.3015 26.9124C90.3522 26.9087 89.6131 25.6834 89.6171 24.1216Z" fill="#17202E"/>
<path d="M69.8284 24.1216C69.8318 22.9134 70.3727 21.3335 71.5311 21.3428C72.6895 21.3521 73.2176 22.9433 73.2138 24.1319C73.2101 25.3578 72.638 26.9172 71.5125 26.9114C70.5665 26.9079 69.8241 25.6824 69.8284 24.1216Z" fill="#17202E"/>
<path d="M87.0869 32.2554C86.6845 33.1805 85.9289 33.981 84.9269 34.5437C83.9249 35.1063 82.7272 35.4027 81.503 35.391C80.2787 35.3793 79.0898 35.0601 78.1043 34.4784C77.1187 33.8967 76.3862 33.082 76.0103 32.1494" stroke="#17202E" stroke-width="2.43145" stroke-linecap="round"/>
<path d="M74.7852 17.0835C74.5557 16.4238 74.0293 15.8022 73.2802 15.3065C72.5311 14.8108 71.5973 14.4662 70.6106 14.3211C69.624 14.1761 68.6344 14.2381 67.7817 14.4984C66.9289 14.7586 66.2561 15.204 65.8584 15.7715" stroke="#17202E" stroke-width="2.43145" stroke-linecap="round"/>
<path d="M43.5583 43.4963C43.5583 59.1656 73.4832 70.3774 67.1344 36.8774" stroke="#17202E" stroke-width="2.43145" stroke-linecap="round"/>
<path d="M104.756 74.4731C104.634 68.0436 105.927 50.1838 108.895 40.1726C109.001 39.8143 108.728 39.4575 108.355 39.4699C103.823 39.6206 92.0624 39.9481 83.4945 40.2513C83.2943 40.2584 83.12 40.3665 83.0387 40.5496C80.2424 46.8468 78.5606 66.9568 79.1169 75.3111C79.1361 75.599 79.3753 75.8089 79.6637 75.7993C83.4962 75.6714 94.6349 75.3674 104.232 75.0287C104.53 75.0181 104.762 74.7714 104.756 74.4731Z" fill="#FBFBFB" stroke="#17202E" stroke-width="2.43145"/>
<path d="M109.632 45.272L108.436 45.0545L108.001 47.4468L109.197 47.6642L109.632 45.272ZM113.467 51.0608L114.673 50.9052L113.467 51.0608ZM91.1257 64.2075C90.4784 64.386 90.0985 65.0554 90.277 65.7027C90.4556 66.3499 91.125 66.7299 91.7722 66.5514L91.1257 64.2075ZM109.415 46.4681L109.197 47.6642C109.617 47.7406 110.336 48.1099 111.009 48.8015C111.663 49.4743 112.146 50.3238 112.261 51.2164L113.467 51.0608L114.673 50.9052C114.474 49.3664 113.674 48.0546 112.752 47.1064C111.848 46.1771 110.698 45.4658 109.632 45.272L109.415 46.4681ZM113.467 51.0608L112.261 51.2164C112.476 52.8816 111.903 54.3487 110.678 55.7167C109.428 57.1136 107.537 58.356 105.27 59.4566C100.734 61.6591 95.0876 63.1145 91.1257 64.2075L91.449 65.3794L91.7722 66.5514C95.645 65.483 101.548 63.9667 106.332 61.6439C108.726 60.4819 110.938 59.0733 112.49 57.3381C114.069 55.5738 114.998 53.4275 114.673 50.9052L113.467 51.0608Z" fill="#17202E"/>
<path d="M54.6269 27.3038C53.0213 26.3196 50.9232 26.8039 49.9114 28.3922C48.8745 30.0198 49.3734 32.1815 51.0188 33.19L74.0054 47.28C74.1045 47.3407 74.2206 47.3679 74.3363 47.3575L79.0176 46.9355C79.3671 46.904 79.5943 46.5528 79.4799 46.2211L77.9313 41.7329C77.8904 41.6145 77.8097 41.514 77.7029 41.4485L54.6269 27.3038Z" fill="#17202E"/>
<defs>
<linearGradient id="paint0_linear_16041_18999" x1="100.5" y1="2.12955e-06" x2="29.1964" y2="71.1336" gradientUnits="userSpaceOnUse">
<stop offset="0.2" stop-color="#E399FF"/>
<stop offset="0.898398" stop-color="#6ECEFF"/>
</linearGradient>
</defs>
</svg>
