<svg width="175" height="185" viewBox="0 0 175 185" fill="none" xmlns="http://www.w3.org/2000/svg">
<path d="M-54.3364 182.13C-53.2313 176.392 -49.8546 171.127 -45.3321 167.479C-37.5352 161.169 -27.3645 159.939 -17.6645 161.046C-15.9455 161.251 -14.2674 156.989 -16.0478 156.272C-24.6427 152.768 -33.9949 147.707 -38.1492 138.917C-39.3566 136.355 -40.0319 133.63 -40.1751 130.823C-40.2365 129.635 -40.1956 128.467 -40.1137 127.299C-40.0728 126.787 -40.0114 126.275 -39.9704 125.762C-39.9091 125.189 -39.8272 124.82 -39.9295 125.291C-39.4384 122.832 -38.7426 121.316 -37.392 118.57C-36.7167 117.177 -35.6116 115.251 -34.527 113.571C-33.3196 111.665 -31.9894 109.821 -30.5774 108.059C-8.94671 81.0538 27.4796 73.5341 60.4065 75.1732C70.1884 75.665 80.093 76.7919 89.4247 79.8244C95.0115 81.648 100.741 84.1887 104.916 88.4301C107.474 91.0323 109.5 94.6384 109.582 98.0602C109.643 101.216 108.62 103.531 106.737 105.703C100.782 112.505 91.6758 112.055 83.6948 108.428C76.2663 105.047 69.6154 99.6584 64.6631 93.1836C60.2223 87.3851 56.6616 79.7015 58.3192 72.2432C60.2837 63.3917 69.288 57.3677 77.3099 54.4991C86.1914 51.3232 95.9528 51.1798 105.223 52.1633C124.705 54.2122 143.819 61.1992 161.356 69.7639C164.713 71.4031 168.007 73.1243 171.261 74.9683L173.287 70.2557C154.931 62.8179 141.015 44.787 134.303 26.674C131.315 18.6421 129.637 10.2414 128.962 1.69715C128.859 0.529228 127.857 0.324272 126.997 0.857002C125.974 1.49218 125.483 3.04938 125.565 4.17632C127.611 29.4606 139.337 53.782 160.231 68.6985C163.669 71.1572 167.352 73.3701 171.282 74.9478C173.205 75.7264 175.108 71.2597 173.308 70.2352C155.831 60.3182 136.431 52.6345 116.683 48.8234C96.9351 45.0123 73.9334 45.0124 60.5089 61.5885C55.0244 68.3706 53.2235 76.9149 55.6588 85.2952C58.094 93.6755 64.1719 101.031 70.9456 106.42C79.8679 113.509 92.6171 119.738 103.422 113.12C110.38 108.838 114.739 100.109 112.406 92.0362C108.845 79.6604 93.1492 74.9068 82.0986 72.7144C60.0177 68.3296 35.8494 68.9034 14.1778 75.1732C-1.14985 79.599 -15.5362 87.467 -26.7711 98.9003C-33.2378 105.477 -39.0905 113.468 -42.1601 122.259C-45.946 133.159 -42.1192 144.982 -33.3401 152.256C-28.7765 156.046 -23.4558 158.771 -17.9919 160.984L-16.3752 156.21C-27.0371 155.001 -38.2105 156.763 -46.5599 163.976C-51.9625 168.647 -56.1167 175.183 -57.4674 182.252C-58.1018 185.592 -54.7456 184.752 -54.2545 182.15L-54.3364 182.13Z" fill="#17202E"/>
</svg>
