<svg width="260" height="227" viewBox="0 0 260 227" fill="none" xmlns="http://www.w3.org/2000/svg">
<path d="M1.76258 57.3373C11.21 70.5025 22.8604 82.3035 35.7782 92.0517C50.211 102.938 67.3605 111.884 85.7532 112.634C95.8512 113.043 105.154 110.555 114.295 106.408C125.727 101.229 136.643 94.7782 146.3 86.7447C158.411 76.6843 169.066 63.6741 174.143 48.5807C174.829 46.5381 175.396 44.4437 175.78 42.3256C176.029 40.9536 176.112 39.8977 176.083 38.5795C175.988 34.1258 175.057 29.1557 173.585 24.6648C171.601 18.6095 168.239 12.747 163.075 8.89269C156.353 3.89103 147.815 3.34439 139.816 4.97079C133.75 6.21377 127.488 8.48041 122.093 11.5272C119.825 12.8045 117.67 14.5423 115.936 16.4906C113.114 19.6395 111.464 23.5803 111.628 27.5141C112.034 37.3865 121.094 46.2916 128.705 51.9213C140.624 60.7474 155.028 66.2127 169.576 68.7469C186.994 71.7842 205.154 70.571 221.939 64.9558C226.424 63.4589 230.793 61.6484 235.051 59.5756C236.222 58.9999 236.278 62.4095 235.52 63.0099C224.077 72.0555 213.105 81.7683 202.713 92.0141C191.684 102.88 180.964 114.436 172.407 127.405C169.011 132.545 165.87 138.014 163.968 143.902C162.641 147.996 161.812 152.625 163.42 156.766C166.911 165.768 172.762 174.105 180.721 179.672C187.908 184.695 196.547 187.261 205.307 186.996C214.367 186.724 223.542 183.602 231.167 178.745C237.578 174.653 244.173 168.361 245.158 160.412C245.606 156.815 245.255 151.95 241.229 150.828C238.24 149.992 234.817 151.047 232.065 152.193C223.521 155.762 216.138 162.736 211.449 170.656C208.903 174.953 207.148 179.788 206.794 184.791C206.402 190.315 207.977 195.738 210.703 200.508C214.554 207.263 220.63 213.044 227.176 217.153C233.108 220.874 239.873 223.067 246.891 223.082C258.615 223.096 269.696 217.301 278.171 209.491C279.862 207.93 281.451 206.261 282.918 204.488C283.849 203.361 284.422 206.757 283.768 207.549C276.453 216.342 266.156 223.347 254.896 225.776C239.099 229.194 224.172 221.416 214.082 209.478C205.882 199.768 202.907 187.077 207.103 174.935C210.501 165.116 217.974 156.563 226.811 151.203C231.373 148.433 241.467 143.633 245.103 150.247C246.627 153.022 246.947 156.716 246.804 159.813C246.603 163.668 245.364 167.352 243.396 170.647C238.773 178.342 230.579 183.612 222.376 186.818C213.663 190.223 204.209 191.635 195.015 189.573C185.734 187.493 177.559 182.213 171.484 174.949C168.018 170.806 165.232 166.083 163.092 161.124C162.007 158.587 161.184 156.135 160.988 153.368C160.602 147.824 162.189 142.282 164.378 137.235C170.474 123.142 180.992 110.91 191.33 99.7596C202.535 87.6769 214.661 76.4223 227.307 65.8633C229.849 63.7395 232.422 61.6495 235.024 59.5932L235.493 63.0274C218.352 71.3695 199.229 75.0754 180.239 73.6508C164.306 72.4594 148.344 67.8407 134.627 59.5915C124.792 53.6823 114.667 45.1676 111.1 33.816C109.671 29.2509 109.565 24.2469 111.218 19.7311C112.978 14.9149 116.803 11.0269 121.12 8.39523C126.299 5.2397 132.601 3.04576 138.489 1.68354C143.1 0.62239 147.917 0.174224 152.603 0.951663C159.792 2.15295 165.83 6.31506 169.88 12.3271C173.478 17.6668 175.56 23.894 176.731 30.1885C177.463 34.1369 177.964 38.3144 177.44 42.3286C175.748 54.9777 168.492 67.0335 160.432 76.6321C153.5 84.9046 145.215 92.0164 136.243 98.0074C130.646 101.745 124.768 105.057 118.715 107.988C113.411 110.561 107.994 113.019 102.284 114.5C83.6247 119.313 64.3728 113.553 48.1735 104.102C31.9742 94.65 18.849 82.5248 7.33429 68.6933C5.10725 66.0235 2.97432 63.2762 0.947826 60.4586C0.494811 59.8181 0.392163 58.7703 0.629312 58.0175C0.75695 57.5969 1.22125 56.6787 1.7165 57.3601L1.76258 57.3373Z" fill="#17202E"/>
</svg>
