<?xml version="1.0" encoding="UTF-8"?><svg id="Vrstva_1" xmlns="http://www.w3.org/2000/svg" viewBox="0 0 476.61 200"><defs><style>.cls-1{fill:#fff;}</style></defs><path class="cls-1" d="M131.56,108.26h-45.37c2.24,7.37,8.82,10.9,18.28,10.9,4.33,0,8.5-.64,14.11-4.01,1.6-.96,2.57-.8,3.53.32l9.3,9.14c1.12,1.12.96,2.24-.32,3.53-7.54,7.37-17.8,12.02-29.02,12.02-25.17,0-42.17-18.12-42.17-41.2s17.32-41.21,40.08-41.21,37.68,18.12,37.68,40.08c0,6.89-.96,10.42-6.09,10.42ZM85.7,91.74h28.38c-1.6-8.34-7.21-11.86-13.79-11.86s-12.83,3.53-14.59,11.86Z"/><path class="cls-1" d="M227.75,92.06v43.61c0,1.44-.96,2.4-2.41,2.4h-21.64c-1.44,0-2.4-.96-2.4-2.4v-38c0-12.51-7.05-15.23-12.51-15.23-9.78,0-13.47,9.62-13.47,13.47v39.76c0,1.44-.96,2.4-2.4,2.4h-21.64c-1.44,0-2.4-.96-2.4-2.4V61.92c0-1.44.96-2.4,2.4-2.4h21c1.44,0,2.24.96,2.4,2.4l.64,9.62c4.81-8.02,12.67-13.79,23.73-13.79,15.71,0,28.7,13.31,28.7,34.31Z"/><path class="cls-1" d="M288.84,61.92v16.51c0,1.44-.96,2.4-2.4,2.4h-11.22v54.83c0,1.44-.96,2.4-2.4,2.4h-21.64c-1.44,0-2.4-.96-2.4-2.4v-54.83h-11.22c-1.44,0-2.4-.96-2.4-2.4v-16.51c0-1.44.96-2.4,2.4-2.4h11.22v-21.64c0-1.44.96-2.4,2.4-2.4h21.64c1.44,0,2.4.96,2.4,2.4v21.64h11.22c1.44,0,2.4.96,2.4,2.4Z"/><path class="cls-1" d="M366.92,108.26h-45.37c2.25,7.37,8.82,10.9,18.28,10.9,4.33,0,8.5-.64,14.11-4.01,1.6-.96,2.56-.8,3.53.32l9.3,9.14c1.12,1.12.96,2.24-.32,3.53-7.54,7.37-17.8,12.02-29.02,12.02-25.17,0-42.17-18.12-42.17-41.2s17.32-41.21,40.08-41.21,37.68,18.12,37.68,40.08c0,6.89-.96,10.42-6.09,10.42ZM321.06,91.74h28.38c-1.6-8.34-7.22-11.86-13.79-11.86s-12.83,3.53-14.59,11.86Z"/><path class="cls-1" d="M442.91,65.77l-5.93,15.39c-.64,2.08-2.08,2.4-4.01,1.92-1.76-.64-3.85-1.28-6.73-1.28-10.1,0-15.55,7.38-15.55,16.67v37.2c0,1.44-.96,2.4-2.4,2.4h-21.64c-1.44,0-2.4-.96-2.4-2.4V61.92c0-1.44.96-2.4,2.4-2.4h20.84c1.44,0,2.25.96,2.4,2.4l.64,9.62c4.01-8.02,10.42-13.79,20.36-13.79,4.81,0,8.82,2.08,11.06,4.17,1.44,1.44,1.44,2.73.96,3.85Z"/><path class="cls-1" d="M476.61,34.09C476.61,15.26,461.35,0,442.52,0H60.55C51.22,0,42.77,3.75,36.61,9.83l-26.74,26.73C3.77,42.72,0,51.19,0,60.54v105.36c0,18.83,15.26,34.09,34.09,34.09h381.97c9.44,0,17.99-3.84,24.16-10.04l26.31-26.3c6.23-6.18,10.08-14.74,10.08-24.2V34.09ZM463.38,139.46c0,11.5-9.36,20.86-20.86,20.86H60.55c-11.5,0-20.86-9.36-20.86-20.86V34.09c0-11.5,9.36-20.86,20.86-20.86h381.97c11.5,0,20.86,9.36,20.86,20.86v105.36Z"/></svg>