<svg xmlns="http://www.w3.org/2000/svg" viewBox="-6 -6 212 212">
  <path fill="#FBFBFB" d="M200 34.09C200 15.26 184.74 0 165.91 0H60.55C51.22 0 42.76 3.75 36.61 9.83L9.87 36.56C3.77 42.72 0 51.19 0 60.54V165.9C0 184.73 15.26 200 34.09 200h105.36c9.44 0 17.99-3.84 24.16-10.04l26.31-26.3c6.23-6.18 10.08-14.74 10.08-24.2V34.09Z"/>
  <path fill="#17202E" d="M146.02 96.07h-45.37c2.24 7.37 8.82 10.9 18.28 10.9 4.33 0 8.5-.64 14.11-4.01 1.6-.96 2.57-.8 3.53.32l9.3 9.14c1.12 1.12.96 2.24-.32 3.53-7.54 7.37-17.8 12.02-29.02 12.02-25.17 0-42.17-18.12-42.17-41.2s17.32-41.21 40.08-41.21 37.68 18.12 37.68 40.08c0 6.89-.96 10.42-6.09 10.42ZM100.17 79.56h28.38c-1.6-8.34-7.21-11.86-13.79-11.86s-12.83 3.53-14.59 11.86Z"/>
  <path fill="#17202E" fill-rule="evenodd" d="M200 34.09C200 15.26 184.74 0 165.91 0H60.55C51.22 0 42.76 3.75 36.61 9.83L9.87 36.56C3.77 42.72 0 51.19 0 60.54V165.9C0 184.73 15.26 200 34.09 200h105.36c9.44 0 17.99-3.84 24.16-10.04l26.31-26.3c6.23-6.18 10.08-14.74 10.08-24.2V34.09Zm-13.23 105.37c0 11.5-9.36 20.86-20.86 20.86H60.55c-11.5 0-20.86-9.36-20.86-20.86V34.09c0-11.5 9.36-20.86 20.86-20.86h105.36c11.5 0 20.86 9.36 20.86 20.86v105.37Z"/>
</svg>
